<svg xmlns="http://www.w3.org/2000/svg"  viewBox="0 0 48 48" width="48px" height="48px" baseProfile="basic"><path d="M39,25H9v21c0,0.336,0.169,0.649,0.45,0.835c0.28,0.185,0.634,0.218,0.944,0.084L24,41.088l13.606,5.831	C37.732,46.974,37.866,47,38,47c0.193,0,0.385-0.056,0.55-0.165C38.831,46.649,39,46.336,39,46V25z"/><polygon fill="#fff" points="38,44 24,38 10,44 10,6 38,6"/><path d="M38,45c-0.134,0-0.268-0.027-0.394-0.081L24,39.088l-13.606,5.831c-0.307,0.133-0.662,0.102-0.944-0.084	C9.169,44.65,9,44.336,9,44V6c0-0.552,0.447-1,1-1h28c0.553,0,1,0.448,1,1v38c0,0.336-0.169,0.65-0.449,0.835	C38.385,44.944,38.192,45,38,45z M24,37c0.134,0,0.269,0.027,0.394,0.081L37,42.483V7H11v35.483l12.606-5.402	C23.731,37.027,23.866,37,24,37z"/></svg>